<?xml version="1.0" encoding="UTF-8" standalone="no"?>
<!DOCTYPE svg PUBLIC "-//W3C//DTD SVG 1.1//EN" "http://www.w3.org/Graphics/SVG/1.1/DTD/svg11.dtd">
<svg version="1.1" xmlns="http://www.w3.org/2000/svg" xmlns:xlink="http://www.w3.org/1999/xlink" preserveAspectRatio="xMidYMid meet" viewBox="-1 -1.0000000000000018 27.822 28" width="23.82" height="24"><defs><path d="M11.5 0.22L12.46 0.48L13.38 0.84L14.24 1.29L15.06 1.83L15.81 2.44L16.49 3.13L17.11 3.88L17.64 4.69L18.09 5.56L18.45 6.48L18.72 7.44L18.88 8.44L18.94 9.47L18.93 9.84L18.91 10.2L18.87 10.57L18.82 10.92L18.76 11.28L18.69 11.63L18.6 11.97L18.5 12.31L18.39 12.65L18.26 12.98L18.13 13.3L17.98 13.62L17.82 13.93L17.65 14.23L17.47 14.53L23.82 20.88L20.7 24L14.31 17.6L14.02 17.77L13.73 17.92L13.43 18.07L13.12 18.2L12.82 18.33L12.5 18.44L12.18 18.54L11.86 18.63L11.53 18.71L11.19 18.78L10.86 18.84L10.51 18.88L10.17 18.91L9.82 18.93L9.47 18.94L8.44 18.88L7.44 18.72L6.48 18.45L5.56 18.09L4.69 17.64L3.88 17.11L3.13 16.49L2.44 15.81L1.83 15.06L1.29 14.24L0.84 13.38L0.48 12.46L0.22 11.5L0.06 10.5L0 9.47L0.06 8.44L0.22 7.44L0.48 6.48L0.84 5.56L1.29 4.69L1.83 3.88L2.44 3.13L3.13 2.44L3.88 1.83L4.69 1.29L5.56 0.84L6.48 0.48L7.44 0.22L8.44 0.06L9.47 0L10.5 0.06L11.5 0.22ZM6.86 4.13L5.75 4.84L4.83 5.76L4.13 6.86L3.69 8.11L3.53 9.47L3.69 10.83L4.13 12.08L4.83 13.18L5.75 14.1L6.86 14.8L8.11 15.25L9.47 15.41L10.83 15.25L12.08 14.8L13.18 14.1L14.1 13.18L14.8 12.08L15.25 10.83L15.41 9.47L15.25 8.11L14.8 6.86L14.1 5.76L13.18 4.84L12.08 4.13L10.83 3.69L9.47 3.53L8.11 3.69L6.86 4.13Z" id="chkp62rxQ"></path></defs><g><g><use xlink:href="#chkp62rxQ" opacity="1" fill="#3665a4" fill-opacity="1"></use></g></g></svg>