<?xml version="1.0" encoding="utf-8"?>
<svg id="master-artboard" viewBox="0 0 13 13" version="1.1" xmlns="http://www.w3.org/2000/svg" x="0px" y="0px" style="enable-background:new 0 0 1400 980;" width="13px" height="13px"><rect id="ee-background" x="0" y="0" width="13" height="13" style="fill: white; fill-opacity: 0; pointer-events: none;"/>


<g transform="matrix(0.5416666666666666, 0, 0, 0.5416666666666666, 0, 0.000001271565793103946)"><path d="M12 2c5.514 0 10 4.486 10 10s-4.486 10-10 10-10-4.486-10-10 4.486-10 10-10zm0-2c-6.627 0-12 5.373-12 12s5.373 12 12 12 12-5.373 12-12-5.373-12-12-12zm1 12v-6h-2v8h7v-2h-5z" style="fill: rgb(215, 55, 58);"/></g></svg>