<?xml version="1.0" encoding="UTF-8" standalone="no"?>
<!DOCTYPE svg PUBLIC "-//W3C//DTD SVG 1.1//EN" "http://www.w3.org/Graphics/SVG/1.1/DTD/svg11.dtd">
<svg version="1.1" xmlns="http://www.w3.org/2000/svg" xmlns:xlink="http://www.w3.org/1999/xlink" preserveAspectRatio="xMidYMid meet" viewBox="1 -1 24 28" width="20" height="24"><defs><path d="M21.95 13.57L21.79 14.08L21.55 14.53L21.23 14.93L20.83 15.27L20.37 15.55L19.85 15.79L19.29 15.98L18.7 16.13L18.08 16.23L17.44 16.3L16.79 16.33L16.14 16.32L15.5 16.28L14.89 16.22L14.3 16.12L13.74 16L13.76 16.08L13.79 16.31L13.84 16.66L13.89 17.12L13.94 17.67L13.97 18.29L13.97 18.95L13.93 19.65L13.85 20.35L13.72 21.05L13.52 21.71L13.24 22.33L12.88 22.88L12.43 23.34L11.87 23.69L11.2 23.92L10.41 24L2 24L2 0L22 0L22 13L21.95 13.57ZM6 12L18 12L18 11L6 11L6 12ZM6 9L18 9L18 8L6 8L6 9ZM6 6L18 6L18 5L6 5L6 6Z" id="bKpCQnrDp"></path></defs><g><g><use xlink:href="#bKpCQnrDp" opacity="1" fill="#333333" fill-opacity="1"></use></g></g></svg>