<?xml version="1.0" encoding="utf-8"?>
<svg id="master-artboard" viewBox="0 0 15 15" version="1.1" xmlns="http://www.w3.org/2000/svg" x="0px" y="0px" style="enable-background:new 0 0 1400 980;" width="15px" height="15px"><rect id="ee-background" x="0" y="0" width="15" height="15" style="fill: white; fill-opacity: 0; pointer-events: none;"/>


<g transform="matrix(0.625, 0, 0, 0.625, 0, 0.000001271565793103946)"><path d="M19 7.001c0 3.865-3.134 7-7 7s-7-3.135-7-7c0-3.867 3.134-7.001 7-7.001s7 3.134 7 7.001zm-1.598 7.18c-1.506 1.137-3.374 1.82-5.402 1.82-2.03 0-3.899-.685-5.407-1.822-4.072 1.793-6.593 7.376-6.593 9.821h24c0-2.423-2.6-8.006-6.598-9.819z" style="fill: rgb(63, 191, 116);"/></g></svg>