<?xml version="1.0" encoding="utf-8"?>
<svg id="master-artboard" viewBox="0 0 30 30" version="1.1" xmlns="http://www.w3.org/2000/svg" x="0px" y="0px" style="enable-background:new 0 0 1400 980;" width="30px" height="30px"><rect id="ee-background" x="0" y="0" width="30" height="30" style="fill: white; fill-opacity: 0; pointer-events: none;"/>


<g transform="matrix(2.371794999696144, 0, 0, 2.371794999696144, -0.41666653752326965, -0.3333328285541497)"><rect id="rect-1" x="0" y="0" width="13" height="13" style="fill: white; fill-opacity: 0; pointer-events: none;"/><g transform="matrix(0.12500001389732632, 0, 0, 0.12500001389732632, -75.00000792856851, -5.500000330277266)"><g id="g-3" transform="matrix(1, 0, 0, 1, 0, 0)">
	<g id="g-4">
		<path class="st0" d="M652,46c27.6,0,50,22.4,50,50s-22.4,50-50,50s-50-22.4-50-50S624.4,46,652,46z" style="fill: rgb(255, 255, 255);"/>
	</g>
</g></g><g transform="matrix(0.34028613567352295, 0, 0, 0.34028613567352295, 2.49999984105429, 2.5000011920928955)"><path d="M15.137 3.945c-.644-.374-1.042-1.07-1.041-1.82v-.003c.001-1.172-.938-2.122-2.096-2.122s-2.097.95-2.097 2.122v.003c.001.751-.396 1.446-1.041 1.82-4.667 2.712-1.985 11.715-6.862 13.306v1.749h20v-1.749c-4.877-1.591-2.195-10.594-6.863-13.306zm-3.137-2.945c.552 0 1 .449 1 1 0 .552-.448 1-1 1s-1-.448-1-1c0-.551.448-1 1-1zm3 20c0 1.598-1.392 3-2.971 3s-3.029-1.402-3.029-3h6zm5.778-11.679c.18.721.05 1.446-.304 2.035l.97.584c.504-.838.688-1.869.433-2.892-.255-1.024-.9-1.848-1.739-2.351l-.582.97c.589.355 1.043.934 1.222 1.654zm.396-4.346l-.597.995c1.023.616 1.812 1.623 2.125 2.874.311 1.251.085 2.51-.53 3.534l.994.598c.536-.892.835-1.926.835-3-.001-1.98-1.01-3.909-2.827-5.001zm-16.73 2.692l-.582-.97c-.839.504-1.484 1.327-1.739 2.351-.255 1.023-.071 2.053.433 2.892l.97-.584c-.354-.588-.484-1.314-.304-2.035.179-.72.633-1.299 1.222-1.654zm-4.444 2.308c0 1.074.299 2.108.835 3l.994-.598c-.615-1.024-.841-2.283-.53-3.534.312-1.251 1.101-2.258 2.124-2.873l-.597-.995c-1.817 1.092-2.826 3.021-2.826 5z" style="fill: rgb(215, 55, 58);"/></g></g></svg>