<?xml version="1.0" encoding="utf-8"?>
<svg id="master-artboard" viewBox="0 0 20 20" version="1.1" xmlns="http://www.w3.org/2000/svg" x="0px" y="0px" style="enable-background:new 0 0 1400 980;" width="20px" height="20px"><rect id="ee-background" x="0" y="0" width="20" height="20" style="fill: white; fill-opacity: 0; pointer-events: none;"/>


<g transform="matrix(0.8333333333333334, 0, 0, 0.8333333333333334, 0, 0.000001271565793103946)"><path d="M12 2c5.514 0 10 4.486 10 10s-4.486 10-10 10-10-4.486-10-10 4.486-10 10-10zm0-2c-6.627 0-12 5.373-12 12s5.373 12 12 12 12-5.373 12-12-5.373-12-12-12zm-2 10h-2v2h2v6h3v-6h1.82l.18-2h-2v-.833c0-.478.096-.667.558-.667h1.442v-2.5h-2.404c-1.798 0-2.596.792-2.596 2.308v1.692z" style="fill: rgb(59, 89, 153);"/></g></svg>