<?xml version="1.0" encoding="utf-8"?>
<svg id="master-artboard" viewBox="0 0 20 20" version="1.1" xmlns="http://www.w3.org/2000/svg" x="0px" y="0px" style="enable-background:new 0 0 1400 980;" width="20px" height="20px"><rect id="ee-background" x="0" y="0" width="20" height="20" style="fill: white; fill-opacity: 0; pointer-events: none;"/>


<g transform="matrix(0.8318684065973041, 0, 0, 0.8318684065973041, 0.01097872480750084, 2.842170943040401e-14)"><path d="M12 2c5.514 0 10 4.486 10 10s-4.486 10-10 10-10-4.486-10-10 4.486-10 10-10zm0-2c-6.627 0-12 5.373-12 12s5.373 12 12 12 12-5.373 12-12-5.373-12-12-12zm6.5 8.778c-.441.196-.916.328-1.414.388.509-.305.898-.787 1.083-1.362-.476.282-1.003.487-1.564.597-.448-.479-1.089-.778-1.796-.778-1.59 0-2.758 1.483-2.399 3.023-2.045-.103-3.86-1.083-5.074-2.572-.645 1.106-.334 2.554.762 3.287-.403-.013-.782-.124-1.114-.308-.027 1.14.791 2.207 1.975 2.445-.346.094-.726.116-1.112.042.313.978 1.224 1.689 2.3 1.709-1.037.812-2.34 1.175-3.647 1.021 1.09.699 2.383 1.106 3.773 1.106 4.572 0 7.154-3.861 6.998-7.324.482-.346.899-.78 1.229-1.274z" style="fill: rgb(85, 172, 238);"/></g></svg>