<?xml version="1.0" encoding="utf-8"?>
<svg id="master-artboard" viewBox="0 0 13 13" version="1.1" xmlns="http://www.w3.org/2000/svg" x="0px" y="0px" style="enable-background:new 0 0 1400 980;" width="13px" height="13px"><rect id="ee-background" x="0" y="0" width="13" height="13" style="fill: white; fill-opacity: 0; pointer-events: none;"/>


<g transform="matrix(0.5416666666666666, 0, 0, 0.5416666666666666, 0, 0.000001271565793103946)"><path d="M9 19c0 .552-.448 1-1 1s-1-.448-1-1v-10c0-.552.448-1 1-1s1 .448 1 1v10zm4 0c0 .552-.448 1-1 1s-1-.448-1-1v-10c0-.552.448-1 1-1s1 .448 1 1v10zm4 0c0 .552-.448 1-1 1s-1-.448-1-1v-10c0-.552.448-1 1-1s1 .448 1 1v10zm5-17v2h-20v-2h5.711c.9 0 1.631-1.099 1.631-2h5.315c0 .901.73 2 1.631 2h5.712zm-3 4v16h-14v-16h-2v18h18v-18h-2z" style="fill: rgb(189, 193, 192);"/></g></svg>